<?xml version="1.0"?>
<svg width="88" height="88" xmlns="http://www.w3.org/2000/svg">

 <g>
  <title>background</title>
  <rect fill="none" id="canvas_background" height="402" width="582" y="-1" x="-1"/>
 </g>
 <g>
  <title>Layer 1</title>
  <g id="svg_1">
   <path id="svg_2" fill="#b2b2b2" d="m77.630997,58.199001c-4.216995,6.820995 -17.675995,11.808002 -33.630997,11.808002c-15.952999,0 -29.414,-4.987007 -33.629,-11.808002c-0.894,-1.443001 -1.371,-0.671001 -1.371,0.045998c0,0.715 0,10.009998 0,10.009998c0,9.693001 15.67,19.745003 35,19.745003c19.332001,0 35,-10.052002 35,-19.745003c0,0 0,-9.294998 0,-10.009998c0,-0.716999 -0.476997,-1.488998 -1.369003,-0.045998zm0.057007,-25.575001c-4.148003,6.029999 -17.660004,10.450001 -33.688004,10.450001c-16.025,0 -29.539,-4.420002 -33.688,-10.450001c-0.855,-1.243 -1.312,-0.568001 -1.312,-0.005001c0,0.563999 0,11.778999 0,11.778999c0,8.813 15.67,15.955002 35,15.955002c19.332001,0 35,-7.142002 35,-15.955002c0,0 0,-11.215 0,-11.778999c0,-0.563 -0.457001,-1.237999 -1.311996,0.005001zm-33.688004,-32.624001c-19.33,0 -35,5.893 -35,13.162l0,6.297999c0,7.710001 15.67,13.959999 35,13.959999c19.332001,0 35,-6.249998 35,-13.959999l0,-6.297999c0,-7.269 -15.667999,-13.162 -35,-13.162z"/>
  </g>
  <g id="svg_3"/>
  <g id="svg_4"/>
  <g id="svg_5"/>
  <g id="svg_6"/>
  <g id="svg_7"/>
  <g id="svg_8"/>
  <g id="svg_9"/>
  <g id="svg_10"/>
  <g id="svg_11"/>
  <g id="svg_12"/>
  <g id="svg_13"/>
  <g id="svg_14"/>
  <g id="svg_15"/>
  <g id="svg_16"/>
  <g id="svg_17"/>
 </g>
</svg>